<svg width="12" height="12" viewBox="0 0 12 12" fill="none" xmlns="http://www.w3.org/2000/svg">
<g clip-path="url(#clip0)">
<path d="M11.2787 5.15773C11.2296 5.14976 11.1799 5.14609 11.1302 5.14673H2.66446L2.84906 5.06087C3.0295 4.97547 3.19365 4.85924 3.33417 4.71743L5.70818 2.34342C6.02084 2.04495 6.07337 1.56481 5.83267 1.20579C5.55253 0.823203 5.01529 0.740134 4.63268 1.02028C4.60177 1.04292 4.57239 1.06761 4.54478 1.09417L0.251816 5.38714C-0.0836792 5.72226 -0.0839743 6.26588 0.251145 6.60138C0.25136 6.60159 0.251601 6.60183 0.251816 6.60205L4.54478 10.895C4.88055 11.2298 5.42417 11.2291 5.75902 10.8933C5.78537 10.8669 5.80997 10.8388 5.83267 10.8092C6.07337 10.4501 6.02084 9.96999 5.70818 9.67152L3.33846 7.29321C3.21249 7.16711 3.06765 7.06137 2.90916 6.97983L2.65158 6.86392H11.083C11.5216 6.8802 11.9064 6.57382 11.9888 6.1427C12.0647 5.67463 11.7468 5.23366 11.2787 5.15773Z" fill="#243845"/>
</g>
<defs>
<clipPath id="clip0">
<rect width="12" height="12" fill="white"/>
</clipPath>
</defs>
</svg>
