<svg width="29" height="29" viewBox="0 0 29 29" fill="none" xmlns="http://www.w3.org/2000/svg">
<path d="M18.6897 12.1422C18.4197 11.8513 17.9817 11.852 17.7118 12.1421L14.0027 15.838L10.0919 12.3413C9.83327 12.0393 9.39597 12.0197 9.11474 12.2979C8.83373 12.5761 8.81574 13.0467 9.07439 13.3489L13.4727 17.415C13.6002 17.564 13.7786 17.6505 13.9667 17.6547C13.9718 17.6549 13.9767 17.655 13.9815 17.655C14.1643 17.655 14.3402 17.5769 14.4697 17.438L18.6883 13.1421C18.9589 12.852 18.9594 12.433 18.6897 12.1422Z" fill="white"/>
<path d="M20.1472 7.07108C19.8528 7.36547 19.8528 7.84265 20.1472 8.13707C23.4585 11.4484 23.4585 16.8359 20.1472 20.1472C16.8361 23.4584 11.4484 23.4586 8.13706 20.1472C4.82592 16.8361 4.82592 11.4482 8.13706 8.13707C8.43145 7.84268 8.43147 7.36547 8.13709 7.07108C7.84267 6.77667 7.36546 6.77669 7.07107 7.07108C3.17204 10.9701 3.17204 17.3142 7.07107 21.2132C10.9699 25.1121 17.3142 25.1122 21.2132 21.2132C25.1121 17.3143 25.1121 10.9699 21.2132 7.07108C20.9188 6.77669 20.4416 6.77666 20.1472 7.07108Z" fill="white"/>
</svg>
