<svg width="32" height="32" viewBox="0 0 32 32" fill="none" xmlns="http://www.w3.org/2000/svg">
<path d="M19.2687 11.3181L30.3621 13.7456C31.3393 13.9536 31.9999 14.7859 31.9999 15.7708V29.9193C31.9999 31.0706 31.0778 32 29.9354 32H18.5806C18.9659 32 19.2687 31.6948 19.2687 31.3064V30.6129H29.9354C30.307 30.6129 30.6236 30.3077 30.6236 29.9193V15.7708C30.6236 15.4517 30.4034 15.1604 30.0868 15.0911L19.2687 12.733V11.3181Z" fill="white"/>
<path d="M25.8063 18.1288C26.1917 18.1288 26.4945 18.434 26.4945 18.8224C26.4945 19.2108 26.1917 19.516 25.8063 19.516H23.0537C22.6683 19.516 22.3655 19.2108 22.3655 18.8224C22.3655 18.434 22.6683 18.1288 23.0537 18.1288H25.8063Z" fill="white"/>
<path d="M25.8063 22.2902C26.1917 22.2902 26.4945 22.5954 26.4945 22.9838C26.4945 23.3722 26.1917 23.6773 25.8063 23.6773H23.0537C22.6683 23.6773 22.3655 23.3722 22.3655 22.9838C22.3655 22.5954 22.6683 22.2902 23.0537 22.2902H25.8063Z" fill="white"/>
<path d="M25.8063 26.4515C26.1917 26.4515 26.4945 26.7567 26.4945 27.1451C26.4945 27.5335 26.1917 27.8387 25.8063 27.8387H23.0537C22.6683 27.8387 22.3655 27.5335 22.3655 27.1451C22.3655 26.7567 22.6683 26.4515 23.0537 26.4515H25.8063Z" fill="white"/>
<path d="M19.2689 31.3064C19.2689 31.6948 18.9661 32 18.5807 32C18.1954 32 17.8926 31.6948 17.8926 31.3064V30.6129V11.8868C17.8926 11.6788 17.9889 11.4846 18.1403 11.3459C18.3055 11.221 18.5119 11.1655 18.7184 11.2071L19.2689 11.3181V12.733V30.6129V31.3064Z" fill="white"/>
<path d="M17.8924 30.6129V31.3064C17.8924 31.6948 18.1952 32 18.5806 32H13.0752C13.4606 32 13.7634 31.6948 13.7634 31.3064V30.6129H17.8924Z" fill="white"/>
<path d="M14.4514 5.64484C14.8367 5.64484 15.1395 5.95 15.1395 6.33839C15.1395 6.72679 14.8367 7.03195 14.4514 7.03195H11.6987C11.3133 7.03195 11.0105 6.72679 11.0105 6.33839C11.0105 5.95 11.3133 5.64484 11.6987 5.64484H14.4514Z" fill="white"/>
<path d="M15.1395 10.4997C15.1395 10.8881 14.8367 11.1933 14.4514 11.1933H11.6987C11.3133 11.1933 11.0105 10.8881 11.0105 10.4997C11.0105 10.1113 11.3133 9.80615 11.6987 9.80615H14.4514C14.8367 9.80615 15.1395 10.1113 15.1395 10.4997Z" fill="white"/>
<path d="M14.4514 13.9675C14.8367 13.9675 15.1395 14.2726 15.1395 14.661C15.1395 15.0494 14.8367 15.3546 14.4514 15.3546H11.6987C11.3133 15.3546 11.0105 15.0494 11.0105 14.661C11.0105 14.2726 11.3133 13.9675 11.6987 13.9675H14.4514Z" fill="white"/>
<path d="M14.4514 18.1288C14.8367 18.1288 15.1395 18.434 15.1395 18.8224C15.1395 19.2108 14.8367 19.516 14.4514 19.516H11.6987C11.3133 19.516 11.0105 19.2108 11.0105 18.8224C11.0105 18.434 11.3133 18.1288 11.6987 18.1288H14.4514Z" fill="white"/>
<path d="M8.25818 18.8224C8.25818 19.2108 7.95539 19.516 7.57001 19.516H4.81732C4.43195 19.516 4.12915 19.2108 4.12915 18.8224C4.12915 18.434 4.43195 18.1288 4.81732 18.1288H7.57001C7.95539 18.1288 8.25818 18.434 8.25818 18.8224Z" fill="white"/>
<path d="M7.57001 5.64484C7.95539 5.64484 8.25818 5.95 8.25818 6.33839C8.25818 6.72679 7.95539 7.03195 7.57001 7.03195H4.81732C4.43195 7.03195 4.12915 6.72679 4.12915 6.33839C4.12915 5.95 4.43195 5.64484 4.81732 5.64484H7.57001Z" fill="white"/>
<path d="M7.57001 9.80615C7.95539 9.80615 8.25818 10.1113 8.25818 10.4997C8.25818 10.8881 7.95539 11.1933 7.57001 11.1933H4.81732C4.43195 11.1933 4.12915 10.8881 4.12915 10.4997C4.12915 10.1113 4.43195 9.80615 4.81732 9.80615H7.57001Z" fill="white"/>
<path d="M7.57001 13.9675C7.95539 13.9675 8.25818 14.2726 8.25818 14.661C8.25818 15.0494 7.95539 15.3546 7.57001 15.3546H4.81732C4.43195 15.3546 4.12915 15.0494 4.12915 14.661C4.12915 14.2726 4.43195 13.9675 4.81732 13.9675H7.57001Z" fill="white"/>
<path d="M12.3873 24.3709C12.3873 23.9825 12.0708 23.6773 11.6992 23.6773H7.57013C7.18475 23.6773 6.88196 23.9825 6.88196 24.3709V30.6129H5.50562V24.3709C5.50562 23.2196 6.42777 22.2902 7.57013 22.2902H11.6992C12.8415 22.2902 13.7637 23.2196 13.7637 24.3709V30.6129H12.3873V24.3709Z" fill="white"/>
<path d="M6.88196 30.6129H12.3873H13.7637V31.3064C13.7637 31.6948 13.4609 32 13.0755 32H6.19379C5.80841 32 5.50562 31.6948 5.50562 31.3064V30.6129H6.88196Z" fill="white"/>
<path d="M2.4086 0.0270057L17.5346 1.30315C18.5394 1.4696 19.2688 2.32962 19.2688 3.35608V11.3181L18.7183 11.2071C18.5118 11.1655 18.3054 11.221 18.1402 11.3459C17.9888 11.4846 17.8925 11.6788 17.8925 11.8868V3.35608C17.8925 3.0093 17.6447 2.71801 17.3144 2.66252L2.18839 1.40025C2.1471 1.38638 2.10581 1.38638 2.06452 1.38638C1.89935 1.38638 1.74796 1.44186 1.62409 1.55283C1.45892 1.69154 1.37634 1.87187 1.37634 2.07993V29.9193C1.37634 30.3077 1.6929 30.6129 2.06452 30.6129H5.50538V31.3064C5.50538 31.6948 5.80817 32 6.19355 32H2.06452C0.92215 32 0 31.0706 0 29.9193V2.07993C0 1.4696 0.261505 0.887016 0.729462 0.498625C1.19742 0.0963614 1.80301 -0.0700923 2.4086 0.0270057Z" fill="white"/>
</svg>
