<svg width="32" height="32" viewBox="0 0 32 32" fill="none" xmlns="http://www.w3.org/2000/svg">
<path d="M29.1875 0H2.8125C1.26169 0 0 1.26169 0 2.8125V23.5625C0 25.1133 1.26169 26.375 2.8125 26.375H12.8243L11.5743 30.125H8.5C7.98225 30.125 7.5625 30.5448 7.5625 31.0625C7.5625 31.5802 7.98225 32 8.5 32C9.30437 32 23.0195 32 23.5 32C24.0177 32 24.4375 31.5802 24.4375 31.0625C24.4375 30.5448 24.0177 30.125 23.5 30.125H20.4258L19.1758 26.375H29.1875C30.7383 26.375 32 25.1133 32 23.5625V2.8125C32 1.26169 30.7383 0 29.1875 0ZM13.5507 30.125L14.8007 26.375H17.1992L18.4492 30.125H13.5507ZM30.125 23.5625C30.125 24.0794 29.7044 24.5 29.1875 24.5C28.5795 24.5 3.56181 24.5 2.8125 24.5C2.29556 24.5 1.875 24.0794 1.875 23.5625V22.625H30.125V23.5625ZM30.125 20.75H1.875V2.8125C1.875 2.29556 2.29556 1.875 2.8125 1.875H29.1875C29.7044 1.875 30.125 2.29556 30.125 2.8125V20.75Z" fill="white"/>
<path d="M22.1451 7.71995L16.5201 3.96995C16.2052 3.76002 15.7949 3.76002 15.48 3.96995L9.855 7.71995C9.59562 7.89289 9.4375 8.18795 9.4375 8.50002V14.125C9.4375 14.4385 9.59412 14.7312 9.855 14.9051L15.48 18.6551C15.7909 18.8623 16.2018 18.8673 16.5201 18.6551L22.1451 14.9051C22.4059 14.7312 22.5626 14.4385 22.5626 14.125V8.50002C22.5626 8.18302 22.4001 7.89002 22.1451 7.71995ZM15.0625 16.1233L11.3125 13.6233V10.2518L15.0625 12.7518V16.1233ZM16 11.1233L12.0651 8.50002L16 5.87677L19.9349 8.50002L16 11.1233ZM20.6875 13.6233L16.9375 16.1233V12.7518L20.6875 10.2518V13.6233Z" fill="white"/>
</svg>
