<svg width="20" height="20" viewBox="0 0 20 20" fill="none" xmlns="http://www.w3.org/2000/svg">
<path d="M10 20C4.48593 20 0 15.5141 0 10C0 4.48593 4.48593 0 10 0C15.5141 0 20 4.48593 20 10C20 15.5141 15.5141 20 10 20ZM10 1.42853C5.27374 1.42853 1.42853 5.27374 1.42853 10C1.42853 14.7263 5.27374 18.5715 10 18.5715C14.7263 18.5715 18.5715 14.7263 18.5715 10C18.5715 5.27374 14.7263 1.42853 10 1.42853Z" fill="#FF8084"/>
<path d="M13.5711 14.2858C13.3883 14.2858 13.2055 14.2161 13.066 14.0765L5.92318 6.93371C5.6441 6.65463 5.6441 6.20266 5.92318 5.92373C6.20211 5.6448 6.65423 5.64465 6.93316 5.92373L14.076 13.0665C14.355 13.3456 14.355 13.7976 14.076 14.0765C13.9365 14.2161 13.7539 14.2858 13.5711 14.2858Z" fill="#FF8084"/>
<path d="M6.42809 14.2859C6.24529 14.2859 6.06264 14.2162 5.92318 14.0766C5.6441 13.7976 5.6441 13.3455 5.92318 13.0666L13.0659 5.92379C13.345 5.64471 13.797 5.64471 14.0759 5.92379C14.3548 6.20272 14.355 6.65484 14.0759 6.93377L6.93315 14.0766C6.79369 14.2162 6.61089 14.2859 6.42809 14.2859Z" fill="#FF8084"/>
</svg>
