<svg width="32" height="32" viewBox="0 0 32 32" fill="none" xmlns="http://www.w3.org/2000/svg">
<path d="M21.9746 25.62V24.0945H26.3421C26.5209 24.0945 26.666 23.9478 26.666 23.7668V20.6038C26.666 20.4227 26.5209 20.2761 26.3421 20.2761H21.9746V18.7499C21.9746 18.6173 21.8957 18.4978 21.7746 18.4473C21.6536 18.3965 21.5143 18.4246 21.4217 18.5181L18.0264 21.9533C17.9656 22.0149 17.9316 22.0984 17.9316 22.1851C17.9316 22.2721 17.9656 22.3556 18.0264 22.4171L21.4217 25.8521C21.5143 25.9459 21.6536 25.974 21.7746 25.923C21.8958 25.8722 21.9746 25.7528 21.9746 25.62Z" fill="white"/>
<path d="M29.5093 15.6261C27.9431 13.8658 25.8179 12.7403 23.5131 12.4477C23.4339 12.2925 23.3086 12.0658 23.2738 12.0048L23.1814 11.8385C23.5386 11.2856 23.7193 10.7114 23.7193 10.1297V6.73938C23.7193 6.23854 23.5822 5.73522 23.3151 5.24974L23.2867 5.19404C23.3892 4.93222 23.4393 4.68538 23.4393 4.4423C23.4393 3.0678 22.1362 1.90996 19.6713 1.09379C17.5718 0.398714 14.7247 0 11.8595 0C8.99389 0 6.14603 0.398714 4.04687 1.09387C1.58173 1.91018 0.278946 3.06825 0.278946 4.44328C0.278946 4.6853 0.328933 4.93185 0.431511 5.19412L0.405104 5.24417C0.136349 5.7371 0.000148689 6.2402 0.000148689 6.73946V10.1297C0.000148689 10.7144 0.180906 11.2877 0.537882 11.836L0.443413 12.0029C0.149218 12.5195 0 13.0463 0 13.5688V16.9597C0 17.529 0.171533 18.0893 0.510136 18.6264L0.443413 18.7435C0.149218 19.26 0 19.7862 0 20.3072V23.7002C0 25.2502 1.24328 26.6777 3.50081 27.7204C5.70329 28.7377 8.67202 29.2977 11.8595 29.2977C13.0299 29.2977 14.2115 29.215 15.3736 29.0519C17.2151 30.9538 19.6698 32 22.2986 32C27.648 32 32 27.5971 32 22.1851C32.0001 19.7606 31.1155 17.4311 29.5093 15.6261ZM4.52569 2.71559C6.45704 2.06732 9.06165 1.7103 11.8597 1.7103C14.6566 1.7103 17.2608 2.06755 19.1933 2.71619C20.9573 3.30839 21.7468 4.0104 21.7468 4.44335C21.7468 4.87774 20.9573 5.58147 19.1931 6.17412C17.2616 6.82299 14.6572 7.18032 11.8597 7.18032C9.06143 7.18032 6.45674 6.82299 4.52577 6.17412C2.76238 5.58162 1.97323 4.87781 1.97323 4.44335C1.97315 4.00987 2.76231 3.30749 4.52569 2.71559ZM1.69302 7.76258C3.61603 9.10864 7.51577 9.96228 11.8597 9.96228C16.2004 9.96228 20.1011 9.10834 22.0279 7.7619V10.1312C22.0279 11.0045 20.995 11.9686 19.2647 12.7098C17.2948 13.5539 14.6649 14.0188 11.8595 14.0188C9.05443 14.0188 6.42483 13.5539 4.45517 12.7099C2.72549 11.9686 1.69287 11.0047 1.69287 10.1312L1.69302 7.76258ZM11.8596 27.5831C9.05525 27.5831 6.4255 27.1185 4.45517 26.2747C2.72556 25.5342 1.69294 24.5716 1.69294 23.7001V20.9953C3.77484 22.6333 7.60072 23.6362 11.8596 23.6362C12.1469 23.6362 12.4274 23.6223 12.6996 23.6074C12.8977 24.9782 13.3887 26.3035 14.1301 27.4735C13.3753 27.5463 12.6133 27.5831 11.8596 27.5831ZM12.6927 20.8131C12.4232 20.8295 12.1456 20.8447 11.8596 20.8447C9.05488 20.8447 6.4252 20.38 4.45525 19.5361C2.72564 18.7951 1.69294 17.8319 1.69294 16.9596V14.2531C3.77053 15.8918 7.5961 16.8955 11.8596 16.8955C12.6048 16.8955 13.3777 16.8553 14.21 16.773C13.4137 17.9883 12.8932 19.3724 12.6927 20.8131ZM22.2987 29.6021C18.2564 29.6021 14.9677 26.2748 14.9677 22.1851C14.9677 18.0954 18.2564 14.7683 22.2987 14.7683C26.3413 14.7683 29.6299 18.0954 29.6299 22.1851C29.6299 26.2748 26.3412 29.6021 22.2987 29.6021Z" fill="white"/>
</svg>
