<svg width="22" height="20" viewBox="0 0 22 20" fill="none" xmlns="http://www.w3.org/2000/svg">
<path d="M18.5833 0H2.75C1.23362 0 0 1.23362 0 2.75V17.25C0 18.7664 1.23362 20 2.75 20H16.6667C17.4896 20 18.2633 19.6795 18.8452 19.0976L20.431 17.5118C21.0129 16.93 21.3333 16.1562 21.3333 15.3333V2.75C21.3333 1.23362 20.0997 0 18.5833 0ZM2.75 1.33333H18.5833C19.3645 1.33333 20 1.96883 20 2.75V4.66667H1.33333V2.75C1.33333 1.96883 1.96883 1.33333 2.75 1.33333ZM1.33333 17.25V6H20V14.6667H17.9167C16.8598 14.6667 16 15.5265 16 16.5833V18.6667H2.75C1.96883 18.6667 1.33333 18.0312 1.33333 17.25ZM19.4882 16.569L17.9024 18.1548C17.7367 18.3205 17.5436 18.4488 17.3333 18.5355V16.5833C17.3333 16.2617 17.595 16 17.9167 16H19.8689C19.7821 16.2103 19.6538 16.4034 19.4882 16.569Z" fill="#243845"/>
<path d="M16.6666 8.66667C16.6666 8.2985 16.3682 8 16 8H5.33329C4.96508 8 4.66663 8.2985 4.66663 8.66667C4.66663 9.03483 4.96508 9.33333 5.33329 9.33333H16C16.3682 9.33333 16.6666 9.03483 16.6666 8.66667Z" fill="#243845"/>
<path d="M14.6667 11.3333H6.66667C6.29846 11.3333 6 11.6318 6 12C6 12.3682 6.29846 12.6667 6.66667 12.6667H14.6667C15.0349 12.6667 15.3333 12.3682 15.3333 12C15.3333 11.6318 15.0349 11.3333 14.6667 11.3333Z" fill="#243845"/>
</svg>
