<svg width="24" height="20" viewBox="0 0 24 20" fill="none" xmlns="http://www.w3.org/2000/svg">
<path d="M21.2499 20H2.75005C1.23303 20 0 18.767 0 17.25V4.74993C0 3.23291 1.23303 2.00006 2.75005 2.00006H8.75003C9.16403 2.00006 9.50003 2.33606 9.50003 2.75006C9.50003 3.16406 9.16403 3.50006 8.75003 3.50006H2.75005C2.06103 3.50006 1.5 4.06091 1.5 4.74993V17.25C1.5 17.939 2.06103 18.5 2.75005 18.5H21.2499C21.9389 18.5 22.4999 17.939 22.4999 17.25V4.74993C22.4999 4.06091 21.9389 3.50006 21.2499 3.50006H15.2499C14.8359 3.50006 14.4999 3.16406 14.4999 2.75006C14.4999 2.33606 14.8359 2.00006 15.2499 2.00006H21.2499C22.7669 2.00006 23.9999 3.23291 23.9999 4.74993V17.25C23.9999 18.767 22.7669 20 21.2499 20Z" fill="#243845"/>
<path d="M14.2499 5.49992H9.74993C8.78497 5.49992 8 4.71495 8 3.74999V1.74993C8 0.784971 8.78497 0 9.74993 0H14.2499C15.2149 0 15.9999 0.784971 15.9999 1.74993V3.74999C15.9999 4.71495 15.2149 5.49992 14.2499 5.49992ZM9.74993 1.5C9.61187 1.5 9.5 1.61206 9.5 1.74993V3.74999C9.5 3.88805 9.61187 3.99993 9.74993 3.99993H14.2499C14.388 3.99993 14.4999 3.88805 14.4999 3.74999V1.74993C14.4999 1.61206 14.388 1.5 14.2499 1.5H9.74993Z" fill="#243845"/>
<path d="M7.49993 12C6.12188 12 5 10.8779 5 9.50004C5 8.12199 6.12188 6.99992 7.49993 6.99992C8.87798 6.99992 9.99986 8.12199 9.99986 9.50004C9.99986 10.8779 8.87798 12 7.49993 12ZM7.49993 8.49992C6.94897 8.49992 6.5 8.94889 6.5 9.50004C6.5 10.051 6.94897 10.5 7.49993 10.5C8.05089 10.5 8.49987 10.051 8.49987 9.50004C8.49987 8.94889 8.05089 8.49992 7.49993 8.49992Z" fill="#243845"/>
<path d="M11.25 17C10.836 17 10.5 16.664 10.5 16.25V15.7499C10.5 15.0609 9.93894 14.4999 9.24992 14.4999H5.75005C5.06103 14.4999 4.5 15.0609 4.5 15.7499V16.25C4.5 16.664 4.164 17 3.75 17C3.336 17 3 16.664 3 16.25V15.7499C3 14.2329 4.23303 12.9999 5.75005 12.9999H9.24992C10.7669 12.9999 12 14.2329 12 15.7499V16.25C12 16.664 11.664 17 11.25 17Z" fill="#243845"/>
<path d="M20.2499 8.99996H14.75C14.336 8.99996 14 8.66397 14 8.24997C14 7.83597 14.336 7.49997 14.75 7.49997H20.2499C20.6639 7.49997 20.9999 7.83597 20.9999 8.24997C20.9999 8.66397 20.6639 8.99996 20.2499 8.99996Z" fill="#243845"/>
<path d="M20.2499 12.9999H14.75C14.336 12.9999 14 12.6639 14 12.2499C14 11.8359 14.336 11.4999 14.75 11.4999H20.2499C20.6639 11.4999 20.9999 11.8359 20.9999 12.2499C20.9999 12.6639 20.6639 12.9999 20.2499 12.9999Z" fill="#243845"/>
<path d="M20.2499 17H14.75C14.336 17 14 16.664 14 16.25C14 15.836 14.336 15.5 14.75 15.5H20.2499C20.6639 15.5 20.9999 15.836 20.9999 16.25C20.9999 16.664 20.6639 17 20.2499 17Z" fill="#243845"/>
</svg>
