<svg width="28" height="32" viewBox="0 0 28 32" fill="none" xmlns="http://www.w3.org/2000/svg">
<path d="M4.30151 4.30356H10.484V6.17856H4.30151V4.30356Z" fill="white"/>
<path d="M4.30151 21.5179H19.0911V23.3929H4.30151V21.5179Z" fill="white"/>
<path d="M4.30151 17.2143H19.0911V19.0893H4.30151V17.2143Z" fill="white"/>
<path d="M4.30151 12.9107H19.0911V14.7857H4.30151V12.9107Z" fill="white"/>
<path d="M4.30151 8.60712H10.484V10.4821H4.30151V8.60712Z" fill="white"/>
<path d="M18.546 4.3095L14.2365 0H0V27.6905H4.30356V32H27.6964V4.3095H18.546ZM14.7857 3.20081L20.192 8.60713H14.7857V3.20081ZM1.875 1.875H12.9107V10.4821H21.5178V25.8154H1.875V1.875ZM25.8214 30.125H6.17856V27.6905H23.3928V9.15631L20.421 6.1845H25.8214V30.125Z" fill="white"/>
</svg>
