<svg width="32" height="32" viewBox="0 0 32 32" fill="none" xmlns="http://www.w3.org/2000/svg">
<path d="M29.748 26.7288V10.9418C29.748 10.4738 29.3899 10.0945 28.948 10.0945H24.4256V6.46406C24.4256 5.99599 24.0675 5.61672 23.6256 5.61672H20.1779V4.4257C20.1779 1.98537 18.3038 0 16 0C13.6962 0 11.8221 1.98537 11.8221 4.4257V5.61672H8.3745C7.93259 5.61672 7.57451 5.99599 7.57451 6.46406V10.0945H3.05201C2.61021 10.0945 2.25202 10.4738 2.25202 10.9418V26.7288C1.00671 26.7524 0 27.831 0 29.1557V29.571C0 30.9103 1.02879 32 2.2933 32H29.7067C30.9712 32 32 30.9103 32 29.571V29.1557C32 27.831 30.9933 26.7524 29.748 26.7288ZM8.3745 23.5641H23.6255C24.0674 23.5641 24.4255 23.1849 24.4255 22.7168V14.6828H25.6426V26.554H6.35746V14.6827H7.57451V22.7167C7.57451 23.1847 7.93259 23.5641 8.3745 23.5641ZM28.148 11.7892V26.554H27.2427V13.8353C27.2427 13.3673 26.8847 12.988 26.4427 12.988H24.4256V11.7892H28.148ZM13.4221 4.4257C13.4221 2.91981 14.5786 1.69468 16 1.69468C17.4214 1.69468 18.5779 2.91981 18.5779 4.4257V5.61672H13.4221V4.4257ZM9.17449 7.3114H11.8221V8.76238C11.8221 9.23045 12.1802 9.60972 12.6221 9.60972C13.064 9.60972 13.4221 9.23045 13.4221 8.76238V7.3114H18.5779V8.76238C18.5779 9.23045 18.936 9.60972 19.3779 9.60972C19.8198 9.60972 20.1779 9.23045 20.1779 8.76238V7.3114H22.8255V21.8693H9.17449V7.3114ZM3.852 11.7892H7.57451V12.988H5.55747C5.11556 12.988 4.75748 13.3673 4.75748 13.8353V26.5539H3.85211V11.7892H3.852ZM30.4 29.571C30.4 29.9759 30.089 30.3053 29.7067 30.3053H2.2933C1.91101 30.3053 1.59998 29.9759 1.59998 29.571V29.1557C1.59998 28.7507 1.91101 28.4213 2.2933 28.4213H29.7067C30.089 28.4213 30.4 28.7507 30.4 29.1557V29.571Z" fill="white"/>
<path d="M19.2695 14.9078L12 12L14.9073 19.2692L15.6161 17.0706L18.5467 20L20 18.5466L17.0701 15.6167L19.2695 14.9078Z" fill="white"/>
</svg>
